<svg width="27" height="27" viewBox="0 0 27 27" fill="none" xmlns="http://www.w3.org/2000/svg">
<g clip-path="url(#clip0_546_4751)">
<path d="M10.4005 23.5877C11.8354 23.9721 13.3112 23.1201 13.6961 21.6839L8.49829 20.2912C8.11348 21.7273 8.96555 23.2032 10.4005 23.5877ZM20.7808 19.8502C20.2219 18.7964 19.0932 17.1341 20.2068 12.978C21.0526 9.82135 19.5164 6.70131 16.6981 5.28167L16.9249 4.43501C17.1173 3.71714 16.6915 2.97907 15.974 2.78683C15.2566 2.59459 14.5188 3.02088 14.3265 3.73875L14.0996 4.58541C10.949 4.4057 8.05861 6.33961 7.21278 9.4963C6.09915 13.6524 4.29054 14.5276 3.27964 15.1607C2.96567 15.3575 2.77367 15.6417 2.69351 15.949C2.51945 16.6165 2.8725 17.3904 3.64928 17.5985L19.2418 21.7765C20.0186 21.9846 20.7116 21.4911 20.8942 20.8259C20.9785 20.5197 20.9544 20.1771 20.7808 19.8502Z" fill="black"/>
</g>
<defs>
<clipPath id="clip0_546_4751">
<rect width="21.5346" height="21.5346" fill="white" transform="translate(5.57361) rotate(15)"/>
</clipPath>
</defs>
</svg>
