<svg width="91" height="28" viewBox="0 0 91 28" fill="none" xmlns="http://www.w3.org/2000/svg">
<rect width="28" height="28" fill="#222222"/>
<rect x="4" y="3" width="4" height="22" fill="white"/>
<rect x="12" y="3" width="4" height="22" fill="white"/>
<rect x="20" y="3" width="4" height="22" fill="white"/>
<rect x="14" y="11" width="2" height="5" fill="#222222"/>
<rect x="16" y="7" width="4" height="4" fill="#136A8F"/>
<rect x="24" y="5" width="4" height="18" fill="#04A2BF"/>
<path d="M84.3757 22C83.1823 22 82.07 21.8085 81.0387 21.4254C80.0221 21.0276 79.1381 20.4678 78.3867 19.7459C77.6354 19.0239 77.046 18.1768 76.6188 17.2044C76.2063 16.232 76 15.1639 76 14C76 12.8361 76.2063 11.768 76.6188 10.7956C77.046 9.8232 77.6354 8.97606 78.3867 8.25414C79.1529 7.53223 80.0442 6.97974 81.0608 6.59668C82.0774 6.19889 83.1897 6 84.3978 6C85.7385 6 86.9466 6.23573 88.0221 6.70718C89.1123 7.1639 90.0258 7.84162 90.7624 8.74033L88.4641 10.8619C87.9337 10.2578 87.3444 9.80847 86.6961 9.51381C86.0479 9.20442 85.3407 9.04972 84.5746 9.04972C83.8527 9.04972 83.1897 9.16759 82.5856 9.40332C81.9816 9.63904 81.4586 9.9779 81.0166 10.4199C80.5746 10.8619 80.2284 11.3849 79.9779 11.989C79.7422 12.593 79.6243 13.2634 79.6243 14C79.6243 14.7366 79.7422 15.407 79.9779 16.0111C80.2284 16.6151 80.5746 17.1381 81.0166 17.5801C81.4586 18.0221 81.9816 18.361 82.5856 18.5967C83.1897 18.8324 83.8527 18.9503 84.5746 18.9503C85.3407 18.9503 86.0479 18.8029 86.6961 18.5083C87.3444 18.1989 87.9337 17.7348 88.4641 17.116L90.7624 19.2376C90.0258 20.1363 89.1123 20.8214 88.0221 21.2928C86.9466 21.7643 85.7311 22 84.3757 22Z" fill="#222222"/>
<path d="M64.442 22C63.2192 22 62.0921 21.8085 61.0608 21.4254C60.0442 21.0276 59.1529 20.4678 58.3867 19.7459C57.6354 19.0239 57.046 18.1768 56.6188 17.2044C56.2063 16.232 56 15.1639 56 14C56 12.8361 56.2063 11.768 56.6188 10.7956C57.046 9.8232 57.6427 8.97606 58.4088 8.25414C59.175 7.53223 60.0737 6.97974 61.105 6.59668C62.1363 6.19889 63.2707 6 64.5083 6C65.8785 6 67.1087 6.22836 68.1989 6.68508C69.3039 7.1418 70.232 7.80479 70.9834 8.67403L68.6851 10.7956C68.1252 10.2063 67.5138 9.77164 66.8508 9.49171C66.1878 9.19705 65.4659 9.04972 64.6851 9.04972C63.9337 9.04972 63.2486 9.16759 62.6298 9.40332C62.0111 9.63904 61.4733 9.9779 61.0166 10.4199C60.5746 10.8619 60.2284 11.3849 59.9779 11.989C59.7422 12.593 59.6243 13.2634 59.6243 14C59.6243 14.7219 59.7422 15.3849 59.9779 15.989C60.2284 16.593 60.5746 17.1234 61.0166 17.5801C61.4733 18.0221 62.0037 18.361 62.6077 18.5967C63.2265 18.8324 63.9042 18.9503 64.6409 18.9503C65.3481 18.9503 66.0332 18.8398 66.6961 18.6188C67.3739 18.3831 68.0295 17.9926 68.663 17.4475L70.6961 20.0332C69.8564 20.6667 68.8766 21.1529 67.7569 21.4917C66.6519 21.8306 65.547 22 64.442 22ZM67.4254 19.5691V13.7569H70.6961V20.0332L67.4254 19.5691Z" fill="#222222"/>
<path d="M35 21.7349V6.26526H42.0276C43.7072 6.26526 45.1878 6.58938 46.4696 7.23764C47.7514 7.87115 48.7532 8.7625 49.4751 9.91167C50.1971 11.0608 50.558 12.4236 50.558 14.0001C50.558 15.5618 50.1971 16.9246 49.4751 18.0885C48.7532 19.2376 47.7514 20.1363 46.4696 20.7846C45.1878 21.4181 43.7072 21.7349 42.0276 21.7349H35ZM38.5801 18.7956H41.8508C42.8821 18.7956 43.7735 18.6041 44.5249 18.2211C45.291 17.8233 45.8803 17.2634 46.2928 16.5415C46.7201 15.8196 46.9337 14.9724 46.9337 14.0001C46.9337 13.013 46.7201 12.1658 46.2928 11.4586C45.8803 10.7367 45.291 10.1842 44.5249 9.80117C43.7735 9.40338 42.8821 9.20449 41.8508 9.20449H38.5801V18.7956Z" fill="#222222"/>
<path d="M52 20C52 19.4477 52.4477 19 53 19H54C54.5523 19 55 19.4477 55 20V21C55 21.5523 54.5523 22 54 22H53C52.4477 22 52 21.5523 52 21V20Z" fill="#136A8F"/>
<path d="M73 20C73 19.4477 73.4477 19 74 19H75C75.5523 19 76 19.4477 76 20V21C76 21.5523 75.5523 22 75 22H74C73.4477 22 73 21.5523 73 21V20Z" fill="#04A2BF"/>
</svg>
