<svg width="18" height="12" viewBox="0 0 18 12" fill="none" xmlns="http://www.w3.org/2000/svg">
<path d="M3.19995 1.2C3.19995 0.537259 3.70139 0 4.31995 0H16.48C17.0985 0 17.6 0.537259 17.6 1.2C17.6 1.86274 17.0985 2.4 16.48 2.4H4.31995C3.70139 2.4 3.19995 1.86274 3.19995 1.2Z" fill="#222222"/>
<path d="M3.19995 6.00005C3.19995 5.33731 3.70139 4.80005 4.31995 4.80005H16.48C17.0985 4.80005 17.6 5.33731 17.6 6.00005C17.6 6.66279 17.0985 7.20005 16.48 7.20005H4.31995C3.70139 7.20005 3.19995 6.66279 3.19995 6.00005Z" fill="#222222"/>
<path d="M3.19995 10.8C3.19995 10.1372 3.70139 9.59998 4.31995 9.59998H16.48C17.0985 9.59998 17.6 10.1372 17.6 10.8C17.6 11.4627 17.0985 12 16.48 12H4.31995C3.70139 12 3.19995 11.4627 3.19995 10.8Z" fill="#222222"/>
<path d="M2.4 1.2C2.4 1.86274 1.86274 2.4 1.2 2.4C0.537258 2.4 0 1.86274 0 1.2C0 0.537258 0.537258 0 1.2 0C1.86274 0 2.4 0.537258 2.4 1.2Z" fill="#222222"/>
<path fill-rule="evenodd" clip-rule="evenodd" d="M1.2 2.1C1.69706 2.1 2.1 1.69706 2.1 1.2C2.1 0.702944 1.69706 0.3 1.2 0.3C0.702944 0.3 0.3 0.702944 0.3 1.2C0.3 1.69706 0.702944 2.1 1.2 2.1ZM1.2 2.4C1.86274 2.4 2.4 1.86274 2.4 1.2C2.4 0.537258 1.86274 0 1.2 0C0.537258 0 0 0.537258 0 1.2C0 1.86274 0.537258 2.4 1.2 2.4Z" fill="#222222"/>
<path fill-rule="evenodd" clip-rule="evenodd" d="M1.2 6.90005C1.69706 6.90005 2.1 6.49711 2.1 6.00005C2.1 5.50299 1.69706 5.10005 1.2 5.10005C0.702944 5.10005 0.3 5.50299 0.3 6.00005C0.3 6.49711 0.702944 6.90005 1.2 6.90005ZM1.2 7.20005C1.86274 7.20005 2.4 6.66279 2.4 6.00005C2.4 5.33731 1.86274 4.80005 1.2 4.80005C0.537258 4.80005 0 5.33731 0 6.00005C0 6.66279 0.537258 7.20005 1.2 7.20005Z" fill="#222222"/>
<path fill-rule="evenodd" clip-rule="evenodd" d="M1.2 11.7C1.69706 11.7 2.1 11.297 2.1 10.8C2.1 10.3029 1.69706 9.89998 1.2 9.89998C0.702944 9.89998 0.3 10.3029 0.3 10.8C0.3 11.297 0.702944 11.7 1.2 11.7ZM1.2 12C1.86274 12 2.4 11.4627 2.4 10.8C2.4 10.1372 1.86274 9.59998 1.2 9.59998C0.537258 9.59998 0 10.1372 0 10.8C0 11.4627 0.537258 12 1.2 12Z" fill="#222222"/>
</svg>
