<svg width="23" height="23" viewBox="0 0 23 23" fill="none" xmlns="http://www.w3.org/2000/svg">
<path d="M16.1 17.25L11.5 12.4583L12.65 11.5L17.25 16.2917L16.1 17.25Z" fill="#222222"/>
<path fill-rule="evenodd" clip-rule="evenodd" d="M7.66667 13.8C11.054 13.8 13.8 11.054 13.8 7.66667C13.8 4.27932 11.054 1.53333 7.66667 1.53333C4.27932 1.53333 1.53333 4.27932 1.53333 7.66667C1.53333 11.054 4.27932 13.8 7.66667 13.8ZM7.66667 15.3333C11.9008 15.3333 15.3333 11.9008 15.3333 7.66667C15.3333 3.43248 11.9008 0 7.66667 0C3.43248 0 0 3.43248 0 7.66667C0 11.9008 3.43248 15.3333 7.66667 15.3333Z" fill="#222222"/>
<path d="M15.3334 17.4242V16.0302L16.0303 16.7272L16.7273 16.0302L16.0303 15.3333H17.4243L23 20.909L20.9091 22.9999L15.3334 17.4242Z" fill="#222222"/>
<path fill-rule="evenodd" clip-rule="evenodd" d="M15.8122 15.3333H17.5252L23 20.8081L20.8082 22.9999L15.3334 17.5251V15.8121L16.1346 16.6133L16.6134 16.1344L15.8122 15.3333ZM16.8022 15.9456L17.1475 15.6003H16.4569L16.8022 15.9456ZM17.4699 15.6556L15.6558 17.4698L20.8082 22.6222L22.6224 20.8081L17.4699 15.6556ZM15.6004 17.1474V16.4568L15.9457 16.8021L15.6004 17.1474Z" fill="#222222"/>
</svg>
